<?xml version="1.0" encoding="utf-8"?>
<!-- Generator: Adobe Illustrator 16.0.0, SVG Export Plug-In . SVG Version: 6.00 Build 0)  -->
<!DOCTYPE svg PUBLIC "-//W3C//DTD SVG 1.1//EN" "http://www.w3.org/Graphics/SVG/1.1/DTD/svg11.dtd">
<svg version="1.1" id="Layer_1" xmlns="http://www.w3.org/2000/svg" xmlns:xlink="http://www.w3.org/1999/xlink" x="0px" y="0px"
	 width="16px" height="16px" viewBox="0 0 16 16" enable-background="new 0 0 16 16" xml:space="preserve">
<g>
	<circle fill="#F1F2F2" cx="8" cy="8" r="8"/>
	<g>
		<path fill="#EE3124" d="M1.2,8.174C1.191,8.188,1.185,8.202,1.178,8.216C1.967,6.769,3.332,5.824,4.84,5.521
			C5.117,5.334,5.403,5.164,5.7,5.007C6.103,4.795,6.524,4.612,6.96,4.46c0.684-0.237,1.405-0.396,2.151-0.466
			C5.96,3.673,2.791,5.238,1.2,8.174"/>
		<path fill="#006848" d="M10.77,5.232c0.948,0.487,1.742,1.155,2.359,1.941c0.56-0.049,1.131-0.016,1.693,0.107
			c-0.72-0.994-1.679-1.837-2.846-2.436c-0.922-0.473-1.893-0.752-2.865-0.851C8.365,4.063,7.644,4.223,6.96,4.46
			C8.234,4.363,9.55,4.606,10.77,5.232"/>
		<path fill="#FFFFFF" d="M10.77,5.232C9.55,4.606,8.234,4.363,6.96,4.46C6.524,4.612,6.103,4.795,5.7,5.007
			C6.975,4.802,8.325,4.985,9.563,5.62c0.891,0.458,1.625,1.1,2.183,1.854c0.445-0.157,0.91-0.259,1.383-0.301
			C12.512,6.387,11.718,5.719,10.77,5.232"/>
		<path fill="#231F20" d="M8.355,6.009c0.943,0.484,1.684,1.209,2.184,2.062c0.378-0.248,0.783-0.447,1.207-0.597
			C11.188,6.72,10.454,6.078,9.563,5.62C8.325,4.985,6.975,4.802,5.7,5.007C5.403,5.164,5.116,5.334,4.84,5.521
			C5.993,5.289,7.228,5.43,8.355,6.009"/>
		<path fill="#EE3124" d="M14.801,7.826c0.008-0.014,0.015-0.028,0.021-0.042c-0.789,1.448-2.154,2.392-3.662,2.696
			c-0.276,0.187-0.563,0.356-0.859,0.513c-0.402,0.212-0.824,0.396-1.261,0.548c-0.684,0.237-1.404,0.396-2.151,0.467
			C10.04,12.326,13.209,10.763,14.801,7.826"/>
		<path fill="#006848" d="M5.23,10.768c-0.947-0.486-1.741-1.154-2.359-1.941c-0.56,0.05-1.13,0.016-1.693-0.106
			c0.721,0.993,1.679,1.837,2.846,2.435c0.922,0.474,1.893,0.752,2.865,0.852c0.747-0.07,1.468-0.229,2.151-0.467
			C7.767,11.636,6.45,11.394,5.23,10.768"/>
		<path fill="#FFFFFF" d="M5.23,10.768c1.22,0.626,2.536,0.868,3.81,0.772c0.437-0.151,0.858-0.334,1.261-0.548
			c-1.274,0.207-2.626,0.021-3.863-0.612c-0.891-0.459-1.626-1.1-2.183-1.854C3.81,8.684,3.344,8.785,2.871,8.827
			C3.489,9.613,4.283,10.281,5.23,10.768"/>
		<path fill="#231F20" d="M7.645,9.991C6.701,9.507,5.961,8.782,5.462,7.929C5.083,8.176,4.678,8.376,4.255,8.526
			C4.812,9.28,5.547,9.921,6.438,10.38c1.237,0.634,2.589,0.819,3.863,0.612c0.296-0.156,0.583-0.326,0.859-0.513
			C10.008,10.711,8.772,10.569,7.645,9.991"/>
	</g>
</g>
</svg>
