<?xml version="1.0" encoding="utf-8"?>
<!-- Generator: Adobe Illustrator 16.0.0, SVG Export Plug-In . SVG Version: 6.00 Build 0)  -->
<!DOCTYPE svg PUBLIC "-//W3C//DTD SVG 1.1//EN" "http://www.w3.org/Graphics/SVG/1.1/DTD/svg11.dtd">
<svg version="1.1" id="Layer_1" xmlns="http://www.w3.org/2000/svg" xmlns:xlink="http://www.w3.org/1999/xlink" x="0px" y="0px"
	 width="70px" height="70px" viewBox="0 0 70 70" enable-background="new 0 0 70 70" xml:space="preserve">
<g>
	<path d="M29.524,8.661c1.727,0.865,2.916,2.646,2.916,4.708c0,0.738-0.153,1.44-0.427,2.078
		c8.313,7.198,15.581,15.568,21.556,24.852c0.403-0.099,0.822-0.157,1.256-0.157c2.144,0,3.985,1.284,4.807,3.121
		c3.459-1,6.811-2.176,10.039-3.516C69.882,38.193,70,36.611,70,35C70,16.688,55.933,1.669,38.016,0.14
		c-1.483,1.289-2.931,2.633-4.334,4.038C32.232,5.627,30.851,7.126,29.524,8.661z"/>
	<path d="M27.173,8.102c0.087,0,0.173,0.01,0.259,0.014c2.425-2.871,5.038-5.581,7.817-8.108C35.166,0.005,35.083,0,35,0
		c-6.39,0-12.375,1.723-17.532,4.713c2.248,1.401,4.446,2.872,6.586,4.42C24.928,8.487,26.004,8.102,27.173,8.102z"/>
	<path d="M60.079,45.169c0.003,0.079,0.012,0.158,0.012,0.24c0,1.395-0.546,2.661-1.432,3.602c1.334,2.537,2.576,5.133,3.723,7.776
		c3.375-4.235,5.794-9.267,6.914-14.773C66.319,43.203,63.243,44.259,60.079,45.169z"/>
	<path d="M5.381,46.129c-1.315-0.325-2.616-0.68-3.903-1.055c1.286,4.284,3.372,8.219,6.082,11.64
		c0.153-2.035,0.376-4.049,0.669-6.041C6.573,49.817,5.431,48.111,5.381,46.129z"/>
	<path d="M30.92,17.067c-0.955,0.969-2.281,1.568-3.748,1.568c-1.561,0-2.958-0.682-3.923-1.761
		c-4.963,7.411-8.674,15.532-11.02,24.097c2.133,0.676,3.679,2.669,3.679,5.023c0,0.068-0.008,0.137-0.011,0.205
		c4.879,0.702,9.903,1.073,15.037,1.073c6.405,0,12.639-0.581,18.633-1.664c-0.003-0.065-0.01-0.132-0.01-0.2
		c0-1.777,0.882-3.347,2.231-4.301c-4.326-6.689-9.353-12.928-15.067-18.642C34.845,20.591,32.907,18.796,30.92,17.067z"/>
	<path d="M10.295,40.745c2.522-9.303,6.579-17.971,11.88-25.722c-0.172-0.521-0.269-1.075-0.269-1.654
		c0-1.032,0.3-1.989,0.813-2.803c-2.307-1.661-4.678-3.225-7.101-4.708C6.204,12.132,0,22.84,0,35c0,2.704,0.317,5.332,0.897,7.861
		c1.578,0.481,3.177,0.927,4.799,1.333C6.395,42.276,8.172,40.883,10.295,40.745z"/>
	<path d="M54.824,50.676c-2.161,0-4.016-1.302-4.828-3.163c-6.13,1.109-12.508,1.704-19.063,1.704
		c-5.283,0-10.452-0.384-15.468-1.114c-0.813,1.859-2.666,3.158-4.824,3.158c-0.182,0-0.36-0.008-0.537-0.027
		c-0.357,2.511-0.59,5.05-0.721,7.607C15.774,65.704,24.883,70,35,70c10.312,0,19.58-4.46,25.985-11.556
		c-1.194-2.822-2.505-5.578-3.915-8.277C56.388,50.49,55.629,50.676,54.824,50.676z"/>
</g>
</svg>
