<?xml version="1.0" encoding="utf-8"?>
<!-- Generator: Adobe Illustrator 16.0.0, SVG Export Plug-In . SVG Version: 6.00 Build 0)  -->
<!DOCTYPE svg PUBLIC "-//W3C//DTD SVG 1.1//EN" "http://www.w3.org/Graphics/SVG/1.1/DTD/svg11.dtd">
<svg version="1.1" id="Layer_1" xmlns="http://www.w3.org/2000/svg" xmlns:xlink="http://www.w3.org/1999/xlink" x="0px" y="0px"
	 width="16px" height="16px" viewBox="0 0 16 16" enable-background="new 0 0 16 16" xml:space="preserve">
<g id="XMLID_2296_">
	<g id="XMLID_2297_">
		<g id="XMLID_2299_">
			<rect id="XMLID_2301_" x="2.236" y="5.999" fill="#FFFFFF" width="2.479" height="8.003"/>
			<ellipse id="XMLID_2300_" fill="#FFFFFF" cx="3.464" cy="3.475" rx="1.465" ry="1.477"/>
		</g>
		<path id="XMLID_2298_" fill="#FFFFFF" d="M8.677,9.801c0-1.125,0.516-1.794,1.509-1.794c0.91,0,1.349,0.644,1.349,1.794
			c0,1.152,0,4.201,0,4.201H14c0,0,0-2.923,0-5.067c0-2.144-1.216-3.18-2.913-3.18s-2.41,1.322-2.41,1.322V5.999H6.299v8.003h2.378
			C8.677,14.002,8.677,11.034,8.677,9.801z"/>
	</g>
</g>
<path fill="#FFFFFF" d="M15.25,0.75v14.5H0.75V0.75H15.25 M16,0H0v16h16V0L16,0z"/>
</svg>
