<?xml version="1.0" encoding="utf-8"?>
<!-- Generator: Adobe Illustrator 16.0.0, SVG Export Plug-In . SVG Version: 6.00 Build 0)  -->
<!DOCTYPE svg PUBLIC "-//W3C//DTD SVG 1.1//EN" "http://www.w3.org/Graphics/SVG/1.1/DTD/svg11.dtd">
<svg version="1.1" id="Layer_1" xmlns="http://www.w3.org/2000/svg" xmlns:xlink="http://www.w3.org/1999/xlink" x="0px" y="0px"
	 width="46px" height="46px" viewBox="0 0 46 46" enable-background="new 0 0 46 46" xml:space="preserve">
<path fill="#F2C94C" d="M31.689,1.703c-1.77-0.723-3.649-1.229-5.607-1.491C25.074,0.076,24.046,0,23,0
	c-1.046,0-2.074,0.076-3.083,0.212c-1.958,0.262-3.837,0.769-5.606,1.491C5.917,5.132,0,13.372,0,22.999s5.917,17.868,14.311,21.297
	c1.769,0.723,3.649,1.229,5.606,1.492C20.926,45.923,21.954,46,23,46c1.046,0,2.074-0.077,3.083-0.212
	c1.958-0.263,3.837-0.77,5.607-1.492C40.083,40.867,46,32.626,46,22.999S40.083,5.132,31.689,1.703z M40.456,13.618
	c1.34,2.48,2.163,5.277,2.331,8.246h-5.728c-0.062-2.889-0.361-5.66-0.857-8.246H40.456z M38.902,11.197h-3.234
	c-0.404-1.601-0.887-3.114-1.439-4.521C36.025,7.916,37.601,9.449,38.902,11.197z M24.211,3.219
	c1.876,0.114,3.684,0.488,5.385,1.092c1.101,1.871,2.068,4.195,2.804,6.887h-8.189V3.219z M32.978,13.618
	c0.515,2.509,0.837,5.276,0.903,8.246h-9.67v-8.246H32.978z M16.403,4.311c1.702-0.604,3.509-0.978,5.386-1.092v7.979H13.6
	C14.336,8.506,15.302,6.182,16.403,4.311z M21.79,13.618v8.246h-9.67c0.066-2.97,0.388-5.737,0.903-8.246H21.79z M11.771,6.677
	c-0.553,1.406-1.036,2.92-1.439,4.521H7.097C8.399,9.448,9.976,7.916,11.771,6.677z M9.798,13.618
	c-0.497,2.586-0.795,5.357-0.858,8.246H3.213c0.169-2.969,0.992-5.766,2.331-8.246H9.798z M5.632,32.532
	c-1.365-2.477-2.22-5.271-2.413-8.246h5.725c0.07,2.891,0.377,5.663,0.883,8.246H5.632z M7.211,34.954h3.162
	c0.396,1.544,0.864,3.008,1.399,4.369C10.027,38.12,8.491,36.639,7.211,34.954z M21.79,42.781c-1.877-0.115-3.685-0.49-5.386-1.092
	c-1.081-1.836-2.031-4.108-2.762-6.735h8.148V42.781z M13.053,32.532c-0.525-2.507-0.857-5.273-0.931-8.246h9.668v8.246H13.053z
	 M29.596,41.689c-1.701,0.602-3.509,0.977-5.385,1.092v-7.827h8.147C31.627,37.581,30.677,39.854,29.596,41.689z M24.211,32.532
	v-8.246h9.667c-0.074,2.973-0.406,5.739-0.931,8.246H24.211z M34.229,39.323c0.535-1.361,1.003-2.825,1.399-4.369h3.161
	C37.509,36.639,35.973,38.119,34.229,39.323z M36.173,32.532c0.505-2.584,0.812-5.355,0.883-8.246h5.725
	c-0.193,2.975-1.047,5.77-2.413,8.246H36.173z"/>
</svg>
