<?xml version="1.0" encoding="utf-8"?>
<!-- Generator: Adobe Illustrator 16.0.0, SVG Export Plug-In . SVG Version: 6.00 Build 0)  -->
<!DOCTYPE svg PUBLIC "-//W3C//DTD SVG 1.1//EN" "http://www.w3.org/Graphics/SVG/1.1/DTD/svg11.dtd">
<svg version="1.1" id="Layer_1" xmlns="http://www.w3.org/2000/svg" xmlns:xlink="http://www.w3.org/1999/xlink" x="0px" y="0px"
	 width="46px" height="46px" viewBox="0 0 46 46" enable-background="new 0 0 46 46" xml:space="preserve">
<g>
	<path fill="#F2C94C" d="M24.745,18.198c2.45,0,4.437-1.986,4.437-4.437s-1.986-4.436-4.437-4.436h-0.316V4.488h4.753v1.609
		c0,1.689,1.37,3.06,3.06,3.06c1.69,0,3.06-1.37,3.06-3.06V4.488h5.956v6.215h1.684c1.69,0,3.06,1.369,3.06,3.059
		c0,1.69-1.37,3.061-3.06,3.061h-1.607v4.557h-5.891c-0.93,0-1.683,0.754-1.683,1.684v1.458c0,0.841-0.681,1.523-1.523,1.523
		c-0.841,0-1.522-0.683-1.522-1.523v-1.458c0-0.93-0.753-1.684-1.683-1.684h-4.603v-3.186L24.745,18.198z"/>
	<path fill="#F2C94C" d="M27.636,24.834c0,2.45,1.986,4.437,4.436,4.437c2.451,0,4.437-1.986,4.437-4.437v-0.316h4.838v4.753h-1.61
		c-1.689,0-3.06,1.37-3.06,3.06s1.37,3.06,3.06,3.06h1.61v5.956h-6.215v1.684c0,1.689-1.37,3.06-3.06,3.06
		c-1.689,0-3.06-1.37-3.06-3.06v-1.607h-4.557v-5.891c0-0.93-0.754-1.684-1.683-1.684h-1.458c-0.841,0-1.523-0.681-1.523-1.522
		c0-0.841,0.682-1.522,1.523-1.522h1.458c0.929,0,1.683-0.754,1.683-1.683v-4.603h3.185L27.636,24.834z"/>
	<path fill="#F2C94C" d="M21.255,27.802c-2.45,0-4.437,1.986-4.437,4.437s1.986,4.437,4.437,4.437h0.316v4.839h-4.753v-1.611
		c0-1.689-1.37-3.06-3.06-3.06c-1.69,0-3.06,1.37-3.06,3.06v1.611H4.744v-6.215H3.06c-1.69,0-3.06-1.371-3.06-3.061
		s1.37-3.06,3.06-3.06h1.607v-4.558h5.891c0.93,0,1.683-0.753,1.683-1.683V21.48c0-0.842,0.681-1.523,1.523-1.523
		c0.841,0,1.522,0.682,1.522,1.523v1.458c0,0.93,0.753,1.683,1.683,1.683h4.603v3.186L21.255,27.802z"/>
	<path fill="#F2C94C" d="M18.364,21.166c0-2.449-1.986-4.436-4.436-4.436c-2.451,0-4.437,1.986-4.437,4.436v0.316H4.654V16.73h1.61
		c1.689,0,3.06-1.37,3.06-3.06c0-1.69-1.37-3.06-3.06-3.06h-1.61V4.655h6.214V2.971c0-1.689,1.37-3.06,3.06-3.06
		c1.689,0,3.06,1.37,3.06,3.06v1.607h4.557v5.892c0,0.93,0.754,1.683,1.683,1.683h1.458c0.841,0,1.523,0.682,1.523,1.523
		c0,0.841-0.682,1.522-1.523,1.522h-1.458c-0.929,0-1.683,0.753-1.683,1.683v4.602H18.36L18.364,21.166z"/>
</g>
</svg>
