<?xml version="1.0" encoding="utf-8"?>
<!-- Generator: Adobe Illustrator 16.0.0, SVG Export Plug-In . SVG Version: 6.00 Build 0)  -->
<!DOCTYPE svg PUBLIC "-//W3C//DTD SVG 1.1//EN" "http://www.w3.org/Graphics/SVG/1.1/DTD/svg11.dtd">
<svg version="1.1" id="Layer_1" xmlns="http://www.w3.org/2000/svg" xmlns:xlink="http://www.w3.org/1999/xlink" x="0px" y="0px"
	 width="70px" height="70px" viewBox="0 0 70 70" enable-background="new 0 0 70 70" xml:space="preserve">
<g>
	<path fill="#FFFFFF" d="M31.29,43.159c0,2.051-0.352,3.906-1.055,5.566s-1.704,3.086-3.003,4.277s-2.866,2.109-4.702,2.754
		s-3.877,0.967-6.123,0.967c-3.906,0-6.807-0.586-8.701-1.758v-5.098c2.852,1.836,5.771,2.754,8.76,2.754
		c1.523,0,2.896-0.225,4.116-0.674s2.261-1.074,3.12-1.875s1.519-1.768,1.978-2.9s0.688-2.373,0.688-3.721
		c0-2.734-0.918-4.878-2.754-6.431s-4.502-2.329-7.998-2.329c-0.566,0-1.162,0.01-1.787,0.029s-1.25,0.044-1.875,0.073
		s-1.235,0.063-1.831,0.103s-1.138,0.088-1.626,0.146l1.436-21.064h19.424v4.336H14.093l-0.85,12.334
		c0.625-0.039,1.289-0.073,1.992-0.103s1.328-0.044,1.875-0.044c2.227,0,4.219,0.293,5.977,0.879s3.247,1.421,4.468,2.505
		s2.148,2.412,2.783,3.984S31.29,41.206,31.29,43.159z"/>
	<path fill="#FFFFFF" d="M62.294,34.81c0,3.516-0.317,6.631-0.952,9.346s-1.553,5.005-2.754,6.87s-2.676,3.281-4.424,4.248
		s-3.735,1.45-5.962,1.45c-2.109,0-3.989-0.464-5.64-1.392s-3.042-2.28-4.175-4.058s-1.992-3.96-2.578-6.548
		s-0.879-5.552-0.879-8.892c0-3.672,0.308-6.914,0.923-9.727s1.519-5.171,2.71-7.075s2.671-3.34,4.438-4.307s3.794-1.45,6.079-1.45
		C57.89,13.276,62.294,20.454,62.294,34.81z M57.372,35.278c0-11.953-2.842-17.93-8.525-17.93c-5.996,0-8.994,6.084-8.994,18.252
		c0,11.348,2.939,17.021,8.818,17.021C54.472,52.622,57.372,46.841,57.372,35.278z"/>
</g>
<text transform="matrix(1 0 0 1 -2.667 -7.8389)" font-family="'Gadugi'" font-size="60">50</text>
<path fill="#FFFFFF" d="M68,2v66H2V2H68 M70,0H0v70h70V0L70,0z"/>
</svg>
