<?xml version="1.0" encoding="utf-8"?>
<!-- Generator: Adobe Illustrator 16.0.0, SVG Export Plug-In . SVG Version: 6.00 Build 0)  -->
<!DOCTYPE svg PUBLIC "-//W3C//DTD SVG 1.1//EN" "http://www.w3.org/Graphics/SVG/1.1/DTD/svg11.dtd">
<svg version="1.1" id="Layer_1" xmlns="http://www.w3.org/2000/svg" xmlns:xlink="http://www.w3.org/1999/xlink" x="0px" y="0px"
	 width="16px" height="16px" viewBox="0 0 16 16" enable-background="new 0 0 16 16" xml:space="preserve">
<g id="XMLID_2407_">
	<path id="XMLID_2408_" fill="#FFFFFF" d="M2.5,11.455c0.998,0.641,2.186,1.015,3.46,1.015c4.189,0,6.557-3.539,6.414-6.714
		c0.44-0.317,0.823-0.716,1.126-1.168c-0.405,0.18-0.84,0.301-1.297,0.356c0.467-0.279,0.825-0.722,0.993-1.249
		c-0.437,0.258-0.92,0.445-1.434,0.548c-0.412-0.439-0.998-0.713-1.647-0.713c-1.456,0-2.526,1.358-2.198,2.771
		C6.042,6.207,4.379,5.31,3.266,3.943C2.675,4.957,2.959,6.285,3.964,6.957C3.595,6.944,3.246,6.843,2.941,6.673
		C2.918,7.72,3.667,8.697,4.752,8.916C4.435,9.002,4.087,9.021,3.733,8.953c0.286,0.897,1.12,1.55,2.107,1.568
		C4.893,11.266,3.697,11.598,2.5,11.455z"/>
</g>
<path fill="#FFFFFF" d="M15.25,0.75v14.5H0.75V0.75H15.25 M16,0H0v16h16V0L16,0z"/>
</svg>
