<?xml version="1.0" encoding="utf-8"?>
<!-- Generator: Adobe Illustrator 16.0.0, SVG Export Plug-In . SVG Version: 6.00 Build 0)  -->
<!DOCTYPE svg PUBLIC "-//W3C//DTD SVG 1.1//EN" "http://www.w3.org/Graphics/SVG/1.1/DTD/svg11.dtd">
<svg version="1.1" id="Layer_1" xmlns="http://www.w3.org/2000/svg" xmlns:xlink="http://www.w3.org/1999/xlink" x="0px" y="0px"
	 width="70px" height="70px" viewBox="0 0 70 70" enable-background="new 0 0 70 70" xml:space="preserve">
<g>
	<path fill="#FFFFFF" d="M46.792,42.808c0,2.051-0.352,3.906-1.055,5.566s-1.704,3.086-3.003,4.277s-2.866,2.109-4.702,2.754
		s-3.877,0.967-6.123,0.967c-3.906,0-6.807-0.586-8.701-1.758v-5.098c2.852,1.836,5.771,2.754,8.76,2.754
		c1.523,0,2.896-0.225,4.116-0.674s2.261-1.074,3.12-1.875s1.519-1.768,1.978-2.9s0.688-2.373,0.688-3.721
		c0-2.734-0.918-4.878-2.754-6.431s-4.502-2.329-7.998-2.329c-0.566,0-1.162,0.01-1.787,0.029s-1.25,0.044-1.875,0.073
		s-1.235,0.063-1.831,0.103s-1.138,0.088-1.626,0.146l1.436-21.064h19.424v4.336H29.595l-0.85,12.334
		c0.625-0.039,1.289-0.073,1.992-0.103s1.328-0.044,1.875-0.044c2.227,0,4.219,0.293,5.977,0.879s3.247,1.421,4.468,2.505
		s2.148,2.412,2.783,3.984S46.792,40.854,46.792,42.808z"/>
</g>
<text transform="matrix(1 0 0 1 13.4297 -9.7646)" font-family="'Gadugi'" font-size="60">5</text>
<path fill="#FFFFFF" d="M68,2v66H2V2H68 M70,0H0v70h70V0L70,0z"/>
</svg>
