<?xml version="1.0" encoding="utf-8"?>
<!-- Generator: Adobe Illustrator 16.0.0, SVG Export Plug-In . SVG Version: 6.00 Build 0)  -->
<!DOCTYPE svg PUBLIC "-//W3C//DTD SVG 1.1//EN" "http://www.w3.org/Graphics/SVG/1.1/DTD/svg11.dtd">
<svg version="1.1" id="Layer_1" xmlns="http://www.w3.org/2000/svg" xmlns:xlink="http://www.w3.org/1999/xlink" x="0px" y="0px"
	 width="70px" height="70px" viewBox="0 0 70 70" enable-background="new 0 0 70 70" xml:space="preserve">
<g>
	<path fill="#FFFFFF" d="M48.345,42.661c0,2.051-0.332,3.936-0.996,5.654s-1.582,3.203-2.754,4.453s-2.568,2.222-4.189,2.915
		s-3.379,1.04-5.273,1.04c-2.109,0-3.999-0.439-5.669-1.318s-3.086-2.144-4.248-3.794s-2.046-3.667-2.651-6.05
		s-0.908-5.068-0.908-8.057c0-3.652,0.405-6.968,1.216-9.946s1.963-5.527,3.457-7.646s3.296-3.755,5.405-4.907
		s4.463-1.729,7.061-1.729c2.891,0,5.215,0.4,6.973,1.201v4.541c-2.168-1.113-4.453-1.67-6.855-1.67c-1.875,0-3.564,0.42-5.068,1.26
		s-2.793,2.026-3.867,3.56s-1.899,3.384-2.476,5.552s-0.864,4.58-0.864,7.236h0.117c1.934-3.496,5.127-5.244,9.58-5.244
		c1.836,0,3.491,0.313,4.966,0.938s2.734,1.509,3.779,2.651s1.851,2.505,2.417,4.087S48.345,40.728,48.345,42.661z M43.423,43.276
		c0-1.465-0.186-2.783-0.557-3.955s-0.903-2.168-1.597-2.988s-1.548-1.45-2.563-1.89s-2.168-0.659-3.457-0.659
		c-1.191,0-2.295,0.225-3.311,0.674s-1.895,1.06-2.637,1.831s-1.323,1.67-1.743,2.695s-0.63,2.114-0.63,3.267
		c0,1.445,0.205,2.798,0.615,4.058s0.986,2.358,1.729,3.296s1.626,1.675,2.651,2.212s2.163,0.806,3.413,0.806
		c1.211,0,2.314-0.229,3.311-0.688s1.846-1.099,2.549-1.919s1.25-1.802,1.641-2.944S43.423,44.663,43.423,43.276z"/>
</g>
<text transform="matrix(1 0 0 1 15 -7.8389)" font-family="'Gadugi'" font-size="60">6</text>
<path fill="#FFFFFF" d="M68,2v66H2V2H68 M70,0H0v70h70V0L70,0z"/>
</svg>
