<?xml version="1.0" encoding="utf-8"?>
<!-- Generator: Adobe Illustrator 16.0.0, SVG Export Plug-In . SVG Version: 6.00 Build 0)  -->
<!DOCTYPE svg PUBLIC "-//W3C//DTD SVG 1.1//EN" "http://www.w3.org/Graphics/SVG/1.1/DTD/svg11.dtd">
<svg version="1.1" id="Layer_1" xmlns="http://www.w3.org/2000/svg" xmlns:xlink="http://www.w3.org/1999/xlink" x="0px" y="0px"
	 width="70px" height="70px" viewBox="0 0 70 70" enable-background="new 0 0 70 70" xml:space="preserve">
<g>
	<g>
		<path d="M1.196,43.539l12.808,15.887v5.902c0,2.582,2.09,4.672,4.67,4.672h6.269c5.146,0,4.666-4.811,4.666-4.811
			s0-11.791,0-14.568c0-2.781-1.405-3.805-1.405-3.805L10.06,31.359c0,0-2.304-1.35-4.021,0.367
			c-1.717,1.717-1.419,3.664-0.595,4.807C6.267,37.68,16.247,47.34,16.247,47.34s1.329,1.189,0.55,1.969
			c-0.778,0.775-2.017-0.689-2.017-0.689L4.208,37.863c0,0-2.519-2.473-0.185-6.273c2.335-3.801,6.216-2.242,6.216-2.242
			l-0.083-14.549c0.082-2.576-1.941-4.734-4.519-4.816C3.041,9.898,0.903,11.922,0.821,14.5L0,40.15
			C0,40.15-0.062,42.281,1.196,43.539z"/>
		<path d="M68.803,43.539L55.995,59.426v5.902c0,2.582-2.091,4.672-4.671,4.672h-6.269c-5.146,0-4.666-4.811-4.666-4.811
			s0-11.791,0-14.568c0-2.781,1.405-3.805,1.405-3.805l18.144-15.457c0,0,2.304-1.35,4.021,0.367
			c1.717,1.717,1.419,3.664,0.595,4.807C63.731,37.68,53.751,47.34,53.751,47.34s-1.329,1.189-0.55,1.969
			c0.778,0.775,2.017-0.689,2.017-0.689L65.79,37.863c0,0,2.519-2.473,0.185-6.273c-2.335-3.801-6.216-2.242-6.216-2.242
			l0.083-14.549c-0.082-2.576,1.941-4.734,4.519-4.816c2.597-0.084,4.734,1.939,4.816,4.518l0.822,25.65
			C69.999,40.15,70.061,42.281,68.803,43.539z"/>
	</g>
	<path d="M42.916,37.225H37.43v-5.488c0-1.344-1.088-2.428-2.431-2.428s-2.431,1.084-2.431,2.428v5.488h-5.486
		c-1.343,0-2.431,1.088-2.431,2.43c0,1.344,1.088,2.432,2.431,2.432h5.486v5.488c0,1.342,1.088,2.43,2.431,2.43
		s2.431-1.088,2.431-2.43v-5.488h5.486c1.343,0,2.431-1.088,2.431-2.432C45.347,38.313,44.259,37.225,42.916,37.225z"/>
	<path d="M51.672,19.406h-3.304v-3.305c0-0.807-0.654-1.463-1.464-1.463c-0.808,0-1.463,0.656-1.463,1.463v3.305h-3.305
		c-0.808,0-1.463,0.654-1.463,1.463c0,0.811,0.655,1.463,1.463,1.463h3.305v3.307c0,0.807,0.655,1.463,1.463,1.463
		c0.81,0,1.464-0.656,1.464-1.463v-3.307h3.304c0.81,0,1.464-0.652,1.464-1.463C53.136,20.061,52.481,19.406,51.672,19.406z"/>
	<path d="M31.615,6.715h-4.653V2.063C26.962,0.924,26.04,0,24.899,0c-1.137,0-2.06,0.924-2.06,2.063v4.652h-4.654
		c-1.138,0-2.061,0.922-2.061,2.063c0,1.137,0.923,2.059,2.061,2.059h4.654v4.654c0,1.137,0.923,2.061,2.06,2.061
		c1.141,0,2.063-0.924,2.063-2.061v-4.654h4.653c1.138,0,2.061-0.922,2.061-2.059C33.676,7.637,32.753,6.715,31.615,6.715z"/>
</g>
</svg>
