<?xml version="1.0" encoding="utf-8"?>
<!-- Generator: Adobe Illustrator 16.0.0, SVG Export Plug-In . SVG Version: 6.00 Build 0)  -->
<!DOCTYPE svg PUBLIC "-//W3C//DTD SVG 1.1//EN" "http://www.w3.org/Graphics/SVG/1.1/DTD/svg11.dtd">
<svg version="1.1" id="Layer_1" xmlns="http://www.w3.org/2000/svg" xmlns:xlink="http://www.w3.org/1999/xlink" x="0px" y="0px"
	 width="16px" height="16px" viewBox="0 0 16 16" enable-background="new 0 0 16 16" xml:space="preserve">
<g>
	<path fill="#FFFFFF" d="M11.756,12.705c-0.498,1.486-1.229,2.644-2.102,3.295c1.435-0.308,2.728-1.007,3.768-1.983
		C12.93,13.505,12.369,13.063,11.756,12.705z"/>
	<path fill="#FFFFFF" d="M12.46,8.414c-0.03,1.255-0.193,2.431-0.464,3.479c0.738,0.409,1.41,0.926,1.995,1.532
		c1.172-1.348,1.914-3.092,2.008-5.012H12.46z"/>
	<path fill="#FFFFFF" d="M8.405,5.2v2.386h3.242c-0.028-1.082-0.167-2.115-0.392-3.045C10.372,4.921,9.411,5.151,8.405,5.2z"/>
	<path fill="#FFFFFF" d="M4.243,12.705c-0.613,0.357-1.174,0.8-1.666,1.312C3.617,14.993,4.91,15.692,6.344,16
		C5.472,15.349,4.741,14.191,4.243,12.705z"/>
	<path fill="#FFFFFF" d="M3.987,4.17C3.241,3.756,2.563,3.229,1.976,2.612C0.822,3.954,0.093,5.685,0,7.586h3.539
		C3.568,6.355,3.726,5.202,3.987,4.17z"/>
	<path fill="#FFFFFF" d="M4.223,3.354C4.721,1.839,5.46,0.66,6.345,0C4.894,0.311,3.587,1.022,2.541,2.018
		C3.036,2.54,3.602,2.991,4.223,3.354z"/>
	<path fill="#FFFFFF" d="M12.012,4.17c0.262,1.032,0.419,2.186,0.448,3.416H16c-0.094-1.901-0.823-3.632-1.977-4.974
		C13.436,3.229,12.758,3.756,12.012,4.17z"/>
	<path fill="#FFFFFF" d="M11.776,3.354c0.621-0.363,1.187-0.814,1.682-1.337C12.412,1.022,11.105,0.311,9.654,0
		C10.539,0.66,11.278,1.839,11.776,3.354z"/>
	<path fill="#FFFFFF" d="M3.539,8.414H0c0.094,1.92,0.836,3.664,2.008,5.012c0.585-0.606,1.258-1.123,1.996-1.532
		C3.732,10.845,3.569,9.669,3.539,8.414z"/>
	<path fill="#FFFFFF" d="M8.405,0.289V4.37c0.93-0.05,1.814-0.271,2.627-0.634C10.442,1.876,9.487,0.558,8.405,0.289z"/>
	<path fill="#FFFFFF" d="M8.405,15.71c1.069-0.264,2.016-1.556,2.606-3.384c-0.807-0.356-1.685-0.575-2.606-0.625V15.71z"/>
	<path fill="#FFFFFF" d="M4.352,7.586h3.242V5.2C6.588,5.151,5.627,4.921,4.743,4.541C4.519,5.471,4.38,6.504,4.352,7.586z"/>
	<path fill="#FFFFFF" d="M8.405,10.872c1,0.049,1.955,0.276,2.834,0.651c0.234-0.946,0.379-2.001,0.408-3.109H8.405V10.872z"/>
	<path fill="#FFFFFF" d="M4.967,3.736C5.779,4.099,6.664,4.32,7.594,4.37V0.289C6.512,0.558,5.557,1.876,4.967,3.736z"/>
	<path fill="#FFFFFF" d="M7.594,15.71v-4.009c-0.922,0.05-1.8,0.269-2.606,0.625C5.578,14.154,6.524,15.446,7.594,15.71z"/>
	<path fill="#FFFFFF" d="M4.76,11.523c0.879-0.375,1.834-0.603,2.834-0.651V8.414H4.352C4.381,9.522,4.525,10.577,4.76,11.523z"/>
</g>
</svg>
