<?xml version="1.0" encoding="utf-8"?>
<!-- Generator: Adobe Illustrator 16.0.0, SVG Export Plug-In . SVG Version: 6.00 Build 0)  -->
<!DOCTYPE svg PUBLIC "-//W3C//DTD SVG 1.1//EN" "http://www.w3.org/Graphics/SVG/1.1/DTD/svg11.dtd">
<svg version="1.1" id="Layer_1" xmlns="http://www.w3.org/2000/svg" xmlns:xlink="http://www.w3.org/1999/xlink" x="0px" y="0px"
	 width="16px" height="16px" viewBox="0 0 16 16" enable-background="new 0 0 16 16" xml:space="preserve">
<path fill="#FFFFFF" d="M8,0C3.582,0,0,3.582,0,8s3.582,8,8,8s8-3.582,8-8S12.418,0,8,0z M12.238,11.328
	c-0.546,0.633-2.107,2.826-6.439-1.601c0,0-1.514-1.351-2.213-3.215c0,0-0.245-1.063,0.201-1.782
	c0.445-0.719,1.235-1.466,1.768-1.035l1.409,1.346c0,0,0.445,0.451,0,0.896L6.173,6.714c0,0,1.812,2.53,3.076,3.119l0.732-0.747
	c0,0,0.403-0.489,0.964-0.015l1.293,1.236C12.238,10.308,12.785,10.695,12.238,11.328z"/>
</svg>
