<?xml version="1.0" encoding="utf-8"?>
<!-- Generator: Adobe Illustrator 16.0.0, SVG Export Plug-In . SVG Version: 6.00 Build 0)  -->
<!DOCTYPE svg PUBLIC "-//W3C//DTD SVG 1.1//EN" "http://www.w3.org/Graphics/SVG/1.1/DTD/svg11.dtd">
<svg version="1.1" id="Layer_1" xmlns="http://www.w3.org/2000/svg" xmlns:xlink="http://www.w3.org/1999/xlink" x="0px" y="0px"
	 width="70px" height="70px" viewBox="0 0 70 70" enable-background="new 0 0 70 70" xml:space="preserve">
<g>
	<path d="M62.917,35c0,15.395-12.523,27.918-27.917,27.918C19.606,62.918,7.083,50.395,7.083,35C7.083,19.606,19.606,7.083,35,7.083
		c3.968,0,7.741,0.839,11.162,2.337l5.212-5.354C46.487,1.474,40.916,0,35,0C15.67,0,0,15.671,0,35c0,19.331,15.67,35,35,35
		c19.329,0,35-15.669,35-35c0-5.909-1.471-11.474-4.057-16.354l-5.313,5.301C62.099,27.338,62.917,31.075,62.917,35z"/>
	<path d="M54.949,28.153H50.91c0.908,2.103,1.412,4.416,1.412,6.847c0,9.551-7.771,17.322-17.322,17.322
		c-9.552,0-17.323-7.771-17.323-17.322S25.448,17.678,35,17.678c2.478,0,4.832,0.526,6.964,1.467v-3.976
		c0-0.929,0.357-1.806,1.003-2.471l0.557-0.57c-2.655-0.989-5.526-1.532-8.524-1.532c-13.479,0-24.406,10.927-24.406,24.404
		c0,13.48,10.927,24.407,24.406,24.407S59.406,48.48,59.406,35c0-2.937-0.52-5.753-1.473-8.363l-0.48,0.48
		C56.785,27.787,55.895,28.153,54.949,28.153z"/>
	<g>
		<path d="M35.207,39.87c-1.324,0-2.569-0.517-3.505-1.452s-1.452-2.182-1.452-3.506c0-1.326,0.516-2.57,1.451-3.505l9.057-9.058
			c-1.755-0.8-3.704-1.248-5.757-1.248c-7.677,0-13.899,6.223-13.899,13.898c0,7.677,6.223,13.9,13.899,13.9S48.9,42.677,48.9,35
			c0-1.99-0.423-3.883-1.176-5.595l-9.013,9.013C37.775,39.354,36.531,39.87,35.207,39.87z"/>
	</g>
	<path d="M69.982,9.974c-0.037-0.089-0.123-0.146-0.219-0.146h-9.237V0.236c0-0.097-0.059-0.182-0.148-0.219
		c-0.089-0.035-0.19-0.015-0.257,0.054l-14.137,14.52c-0.042,0.044-0.067,0.104-0.067,0.165v7.342L34.687,33.331
		c-0.646,0.644-0.646,1.69,0,2.336c0.323,0.323,0.747,0.484,1.169,0.484s0.846-0.161,1.169-0.484l11.231-11.232h7.342
		c0.063,0,0.123-0.024,0.167-0.068L69.93,10.23C69.999,10.164,70.018,10.063,69.982,9.974z"/>
</g>
</svg>
